<svg xmlns="http://www.w3.org/2000/svg" xmlns:xlink="http://www.w3.org/1999/xlink" width="47.442" height="47.942" viewBox="0 0 47.442 47.942"><defs><filter id="a" x="0" y="0" width="47.442" height="47.942" filterUnits="userSpaceOnUse"><feOffset dx="3" dy="5" input="SourceAlpha"/><feGaussianBlur stdDeviation="1.5" result="b"/><feFlood flood-opacity="0.161"/><feComposite operator="in" in2="b"/><feComposite in="SourceGraphic"/></filter></defs><g transform="matrix(1, 0, 0, 1, 0, 0)" filter="url(#a)"><path d="M40.662,32.811h0L29,21.149,40.662,9.487h0a1.2,1.2,0,0,0,0-1.7L35.153,2.279a1.2,1.2,0,0,0-1.7,0h0L21.792,13.941,10.13,2.279h0a1.2,1.2,0,0,0-1.7,0L2.922,7.788a1.2,1.2,0,0,0,0,1.7h0L14.584,21.149,2.922,32.811h0a1.2,1.2,0,0,0,0,1.7l5.509,5.509a1.2,1.2,0,0,0,1.7,0h0L21.792,28.357,33.454,40.019h0a1.2,1.2,0,0,0,1.7,0l5.509-5.509a1.2,1.2,0,0,0,0-1.7Z" transform="translate(-1.07 -1.93)"/></g></svg>