<svg xmlns="http://www.w3.org/2000/svg" xmlns:xlink="http://www.w3.org/1999/xlink" width="60.451" height="48.088" viewBox="0 0 60.451 48.088"><defs><filter id="a" x="0" y="0" width="60.451" height="48.088" filterUnits="userSpaceOnUse"><feOffset dx="3" dy="5" input="SourceAlpha"/><feGaussianBlur stdDeviation="1.5" result="b"/><feFlood flood-opacity="0.161"/><feComposite operator="in" in2="b"/><feComposite in="SourceGraphic"/></filter></defs><g transform="translate(1.5)"><g transform="matrix(1, 0, 0, 1, -1.5, 0)" filter="url(#a)"><path d="M17.475,42.408.753,25.59a2.6,2.6,0,0,1,0-3.659l3.638-3.659a2.562,2.562,0,0,1,3.638,0L19.294,29.6,43.421,5.335a2.562,2.562,0,0,1,3.638,0L50.7,8.994a2.6,2.6,0,0,1,0,3.659L21.113,42.408A2.562,2.562,0,0,1,17.475,42.408Z" transform="translate(1.5 -4.58)" fill="#fff"/></g></g></svg>